<svg width="800" height="310" viewBox="0 0 800 310" fill="none" xmlns="http://www.w3.org/2000/svg">
<path d="M795.825 195.195C795.825 182.034 794.193 170.526 794.193 168.077C794.193 110.534 739.318 98.528 688.545 64.5003C687.231 63.5047 740.134 5.3052 691.831 2.0199H505.604C503.314 2.0199 500.845 2.83624 498.894 4.15036C493.657 7.77415 491.029 13.0306 491.029 19.6012V287.602C491.029 291.047 491.029 294.511 492.343 297.956C494.474 303.212 500.208 307.991 505.783 307.991H614.218C670.068 307.991 725.918 307.991 781.768 307.831C784.396 307.831 787.343 307.174 789.294 305.86C794.69 302.077 797.319 296.482 797 289.752C796.681 279.399 796.184 268.866 795.845 258.512C795.686 255.386 796.164 252.101 796.164 248.975C796.323 230.557 795.845 196.032 795.845 195.215L795.825 195.195Z" fill="url(#paint0_linear_1_162)"/>
<path d="M646.772 93.9087C646.772 92.0968 648.246 90.6234 650.058 90.6234H689.362C691.154 90.6234 692.647 92.0968 692.647 93.9087V120.211H712.299C714.091 120.211 715.584 121.684 715.584 123.496V156.389C715.584 158.201 714.111 159.674 712.299 159.674H692.647V199.954C692.647 207.361 695.932 210.646 703.299 210.646H713.952C715.744 210.646 717.237 212.12 717.237 213.932V246.824C717.237 248.636 715.764 250.11 713.952 250.11H690.198C647.609 248.457 647.788 205.708 647.609 205.708V201.607L646.792 159.674H633.691C631.899 159.674 630.406 158.201 630.406 156.389V123.496C630.406 121.684 631.879 120.211 633.691 120.211H646.792V93.9087H646.772Z" fill="#2E578F"/>
<path d="M594.367 108.702C608.838 108.702 620.569 98.3974 620.569 85.6855C620.569 72.9735 608.838 62.6685 594.367 62.6685C579.895 62.6685 568.164 72.9735 568.164 85.6855C568.164 98.3974 579.895 108.702 594.367 108.702Z" fill="#2E578F"/>
<path d="M578 120.211H610.753C614.357 120.211 617.304 123.178 617.304 126.782V241.867C617.304 245.49 614.357 248.437 610.753 248.437H578C574.396 248.437 571.449 245.47 571.449 241.867V126.782C571.449 123.158 574.396 120.211 578 120.211Z" fill="#2E578F"/>
<path d="M785.989 133.372C785.014 131.719 784.018 130.246 783.042 128.613C769.443 110.355 731.772 90.9619 687.729 65.6352C698.7 51.0007 717.217 23.7029 710.328 9.9046C739.318 56.5957 761.26 93.9286 783.042 128.613C784.197 130.266 785.173 131.899 785.989 133.372Z" fill="#F8993E"/>
<path d="M195 45C197.761 45 200 47.2386 200 50V231C200 233.761 197.761 236 195 236H152C149.239 236 147 233.761 147 231V50C147 47.2386 149.239 45 152 45H195Z" fill="white"/>
<path d="M358 85C360.761 85 363 87.2386 363 90V303C363 305.761 360.761 308 358 308H315C312.239 308 310 305.761 310 303V90C310 87.2386 312.239 85 315 85H358Z" fill="white"/>
<path fill-rule="evenodd" clip-rule="evenodd" d="M5 49.7951C5 47.0337 7.23858 44.7951 10 44.7951H54.7683H125.43C128.191 44.7951 130.43 47.0337 130.43 49.7951V86.608H54.7683V120.456H112.51V157.269C112.51 160.031 110.271 162.269 107.51 162.269H54.7683L54.7683 230.94C54.7683 233.701 52.5298 235.94 49.7683 235.94H10C7.23858 235.94 5 233.701 5 230.94V49.7951Z" fill="white"/>
<rect x="229" y="100" width="52" height="136" rx="5" fill="white"/>
<circle cx="255" cy="66" r="26" fill="white"/>
<path fill-rule="evenodd" clip-rule="evenodd" d="M408 236C443.899 236 473 201.75 473 159.5C473 117.25 443.899 83 408 83C372.101 83 343 117.25 343 159.5C343 201.75 372.101 236 408 236ZM391.199 193.377C406.773 193.377 419.399 178.518 419.399 160.188C419.399 141.859 406.773 127 391.199 127C375.625 127 363 141.859 363 160.188C363 178.518 375.625 193.377 391.199 193.377Z" fill="white"/>
<defs>
<linearGradient id="paint0_linear_1_162" x1="491" y1="288.5" x2="741.5" y2="58.5" gradientUnits="userSpaceOnUse">
<stop stop-color="white"/>
<stop offset="0.884652" stop-color="white"/>
<stop offset="1" stop-color="#9C9C9C"/>
</linearGradient>
</defs>
</svg>
